<?xml version="1.0" encoding="UTF-8"?>
<svg id="_Слой_2" data-name="Слой 2" xmlns="http://www.w3.org/2000/svg" viewBox="0 0 275.7 278.33">
  <defs>
    <style>
      .cls-1 {
        fill: #ed1c24;
      }

      .cls-1, .cls-2, .cls-3, .cls-4, .cls-5 {
        stroke-width: 0px;
      }

      .cls-2 {
        fill: #fde5df;
      }

      .cls-4 {
        fill: #f26b78;
      }

      .cls-5 {
        fill: #ed8c9b;
      }
    </style>
  </defs>
  <g id="_Слой_1-2" data-name="Слой 1">
    <path class="cls-4" d="m256.06,103.12l18.05,129.75c.76,5.47-3.06,10.52-8.53,11.28l-234.74,32.66c-5.47.76-10.52-3.06-11.28-8.53L1.51,138.54,99.02,9.51c6.66-8.81,19.2-10.56,28.01-3.9l129.03,97.51Z"/>
    <path class="cls-5" d="m255.45,103.46l-79.44,105.12c-3.18,4.21-7.91,6.98-13.13,7.71l-40.83,5.68c-5.23.73-10.53-.65-14.74-3.83L2.18,138.7l253.27-35.24Z"/>
    <path class="cls-2" d="m214.06,19.11l16.31,117.24-54.4,71.98c-3.18,4.21-7.91,6.99-13.13,7.71l-40.83,5.68c-5.22.73-10.53-.65-14.73-3.83l-71.98-54.4L18.98,46.25l195.07-27.14Z"/>
    <path class="cls-1" d="m131.43,136.28s-33.05-8.33-24.74-24.83c6.44-12.79,19.95,2.2,19.95,2.2,0,0,9.14-14.67,20.09-9.53,6.82,3.2,4.3,13.37-2.43,19.62-6.38,5.91-12.86,12.55-12.86,12.55Z"/>
    <path class="cls-3" d="m256.95,101.85l-34.48-26.06-7.98-57.33-57.33,7.98-29.24-22.1c-9.45-7.15-22.96-5.27-30.11,4.19l-22.1,29.24-57.33,7.98,7.98,57.33L.3,137.56c-.24.33-.34.72-.29,1.11l18.05,129.75c.88,6.29,6.7,10.68,12.98,9.81l234.74-32.66c6.28-.87,10.68-6.69,9.81-12.98l-18.05-129.75c-.05-.39-.26-.74-.58-.99Zm-33.89-21.85l30.88,23.34-27.11,3.77-3.77-27.11Zm3.91,28.1l26.83-3.73-23.1,30.56-3.73-26.83ZM100.2,10.33c6.15-8.13,17.78-9.75,25.91-3.61l26.85,20.29-73.06,10.17,20.29-26.85ZM19.51,46.6l194.13-27.01,16.21,116.47-54.44,72.04c-.38.51-.78.99-1.21,1.45-1.59,1.73-3.46,3.12-5.54,4.13-.83.41-1.68.76-2.57,1.04-.44.14-.89.27-1.35.38-.62.15-1.24.26-1.86.35l-41.04,5.71c-.62.09-1.25.14-1.88.17-.47.02-.94.02-1.4,0-.93-.03-1.85-.14-2.76-.3-2.28-.41-4.46-1.24-6.46-2.46-.54-.33-1.05-.68-1.56-1.06l-72.04-54.44L19.51,46.6Zm7.43,60.68l3.77,27.11-27.11,3.77,23.34-30.88Zm3.91,28.1l3.73,26.83-30.56-23.1,26.83-3.73Zm-9.82,132.62L3.19,139.74l77.46,58.53-56.7,75.03c-1.53-1.3-2.61-3.16-2.91-5.3Zm244.33-25.41l-234.74,32.66c-2.14.3-4.21-.23-5.88-1.35l56.69-75.02,25.71,19.42c.14.1.27.2.4.3s.27.19.4.29c.55.37,1.11.71,1.68,1.03.29.15.58.3.88.44.88.42,1.78.78,2.71,1.08.32.1.63.19.95.27.94.24,1.91.42,2.88.53.64.06,1.3.1,1.95.11.98.01,1.97-.05,2.95-.19l41.04-5.71c.98-.14,1.95-.34,2.89-.62.63-.19,1.25-.41,1.85-.64.91-.37,1.79-.8,2.63-1.29.28-.16.56-.34.84-.52.81-.54,1.59-1.13,2.32-1.78.25-.22.48-.44.73-.67.46-.46.91-.94,1.33-1.45.1-.13.21-.26.31-.39s.21-.26.31-.4l19.43-25.7,75.02,56.69c-1.3,1.53-3.15,2.61-5.29,2.91Zm7.25-9.59c.3,2.14-.23,4.22-1.35,5.89l-75.03-56.7,58.53-77.46,17.85,128.26Z"/>
  </g>
</svg>